<svg xmlns="http://www.w3.org/2000/svg" viewBox="0 0 1200 675" preserveAspectRatio="xMidYMid slice">
  <defs>
    <!-- Gradients -->
    <linearGradient id="sky" x1="0%" y1="0%" x2="0%" y2="100%">
      <stop offset="0%" style="stop-color:#1a1a40"/>
      <stop offset="50%" style="stop-color:#3d2c8d"/>
      <stop offset="100%" style="stop-color:#8062d6"/>
    </linearGradient>
    <radialGradient id="glow" cx="50%" cy="60%" r="50%">
      <stop offset="0%" style="stop-color:#f8f0fb;stop-opacity:0.4"/>
      <stop offset="100%" style="stop-color:#f8f0fb;stop-opacity:0"/>
    </radialGradient>
    <linearGradient id="ground" x1="0%" y1="0%" x2="0%" y2="100%">
      <stop offset="0%" style="stop-color:#3d2c8d"/>
      <stop offset="100%" style="stop-color:#1a1a40"/>
    </linearGradient>
    <!-- Filters -->
    <filter id="blur">
      <feGaussianBlur in="SourceGraphic" stdDeviation="3"/>
    </filter>
    <filter id="glow-filter">
      <feGaussianBlur stdDeviation="4" result="blur"/>
      <feMerge><feMergeNode in="blur"/><feMergeNode in="SourceGraphic"/></feMerge>
    </filter>
  </defs>

  <!-- Background -->
  <rect width="1200" height="675" fill="url(#sky)"/>

  <!-- Atmospheric glow -->
  <ellipse cx="520" cy="483" rx="500" ry="300" fill="url(#glow)"/>

  <!-- Stars/particles -->
  <circle cx="137" cy="137" r="1.35" fill="#f8f0fb" opacity="0.6699999999999999"/><circle cx="264" cy="226" r="0.9" fill="#f8f0fb" opacity="0.33999999999999997"/><circle cx="391" cy="315" r="1.45" fill="#f8f0fb" opacity="0.51"/><circle cx="518" cy="4" r="1" fill="#f8f0fb" opacity="0.6799999999999999"/><circle cx="645" cy="93" r="0.55" fill="#f8f0fb" opacity="0.35"/><circle cx="772" cy="182" r="1.1" fill="#f8f0fb" opacity="0.52"/><circle cx="899" cy="271" r="0.65" fill="#f8f0fb" opacity="0.69"/><circle cx="1026" cy="360" r="1.2" fill="#f8f0fb" opacity="0.36"/><circle cx="1153" cy="49" r="0.75" fill="#f8f0fb" opacity="0.53"/><circle cx="80" cy="138" r="1.3" fill="#f8f0fb" opacity="0.7"/><circle cx="207" cy="227" r="0.85" fill="#f8f0fb" opacity="0.37"/><circle cx="334" cy="316" r="1.4" fill="#f8f0fb" opacity="0.54"/><circle cx="461" cy="5" r="0.95" fill="#f8f0fb" opacity="0.71"/><circle cx="588" cy="94" r="0.5" fill="#f8f0fb" opacity="0.38"/><circle cx="715" cy="183" r="1.05" fill="#f8f0fb" opacity="0.55"/><circle cx="842" cy="272" r="0.6" fill="#f8f0fb" opacity="0.72"/><circle cx="969" cy="361" r="1.15" fill="#f8f0fb" opacity="0.39"/><circle cx="1096" cy="50" r="0.7" fill="#f8f0fb" opacity="0.56"/><circle cx="23" cy="139" r="1.25" fill="#f8f0fb" opacity="0.73"/><circle cx="150" cy="228" r="0.8" fill="#f8f0fb" opacity="0.4"/><circle cx="277" cy="317" r="1.35" fill="#f8f0fb" opacity="0.5700000000000001"/><circle cx="404" cy="6" r="0.9" fill="#f8f0fb" opacity="0.74"/><circle cx="531" cy="95" r="1.45" fill="#f8f0fb" opacity="0.41"/><circle cx="658" cy="184" r="1" fill="#f8f0fb" opacity="0.5800000000000001"/><circle cx="785" cy="273" r="0.55" fill="#f8f0fb" opacity="0.75"/><circle cx="912" cy="362" r="1.1" fill="#f8f0fb" opacity="0.42"/><circle cx="1039" cy="51" r="0.65" fill="#f8f0fb" opacity="0.59"/><circle cx="1166" cy="140" r="1.2" fill="#f8f0fb" opacity="0.76"/><circle cx="93" cy="229" r="0.75" fill="#f8f0fb" opacity="0.43"/><circle cx="220" cy="318" r="1.3" fill="#f8f0fb" opacity="0.6"/><circle cx="347" cy="7" r="0.85" fill="#f8f0fb" opacity="0.77"/><circle cx="474" cy="96" r="1.4" fill="#f8f0fb" opacity="0.44"/><circle cx="601" cy="185" r="0.95" fill="#f8f0fb" opacity="0.61"/><circle cx="728" cy="274" r="0.5" fill="#f8f0fb" opacity="0.78"/><circle cx="855" cy="363" r="1.05" fill="#f8f0fb" opacity="0.44999999999999996"/><circle cx="982" cy="52" r="0.6" fill="#f8f0fb" opacity="0.62"/><circle cx="1109" cy="141" r="1.15" fill="#f8f0fb" opacity="0.79"/><circle cx="36" cy="230" r="0.7" fill="#f8f0fb" opacity="0.45999999999999996"/><circle cx="163" cy="319" r="1.25" fill="#f8f0fb" opacity="0.63"/><circle cx="290" cy="8" r="0.8" fill="#f8f0fb" opacity="0.3"/><circle cx="417" cy="97" r="1.35" fill="#f8f0fb" opacity="0.47"/><circle cx="544" cy="186" r="0.9" fill="#f8f0fb" opacity="0.64"/><circle cx="671" cy="275" r="1.45" fill="#f8f0fb" opacity="0.31"/><circle cx="798" cy="364" r="1" fill="#f8f0fb" opacity="0.48"/><circle cx="925" cy="53" r="0.55" fill="#f8f0fb" opacity="0.6499999999999999"/><circle cx="1052" cy="142" r="1.1" fill="#f8f0fb" opacity="0.32"/><circle cx="1179" cy="231" r="0.65" fill="#f8f0fb" opacity="0.49"/><circle cx="106" cy="320" r="1.2" fill="#f8f0fb" opacity="0.6599999999999999"/><circle cx="233" cy="9" r="0.75" fill="#f8f0fb" opacity="0.32999999999999996"/><circle cx="360" cy="98" r="1.3" fill="#f8f0fb" opacity="0.5"/>

  <!-- Distant mountains/shapes -->
  <polygon points="0,500 0,487 100,437 200,387 300,487 400,437 500,387 600,487 700,437 800,387 900,487 1000,437 1100,387 1200,487 1200,500" fill="#3d2c8d" opacity="0.5"/>
  <polygon points="0,550 0,537 80,527 160,517 240,507 320,497 400,487 480,477 560,467 640,457 720,447 800,437 880,427 960,417 1040,407 1120,547 1200,537 1200,550" fill="#8062d6" opacity="0.6"/>

  <!-- Main focal element based on theme -->
  
    <g transform="translate(600, 300)" filter="url(#glow-filter)">
      <ellipse cx="0" cy="0" rx="80" ry="100" fill="none" stroke="#f8f0fb" stroke-width="8"/>
      <ellipse cx="0" cy="0" rx="60" ry="80" fill="none" stroke="#c69ff3" stroke-width="4"/>
      <circle cx="0" cy="60" r="15" fill="#f8f0fb"/>
      <line x1="0" y1="0" x2="150" y2="0" stroke="#f8f0fb" stroke-width="2" opacity="0.5"/><line x1="0" y1="0" x2="106.06601717798213" y2="106.06601717798212" stroke="#f8f0fb" stroke-width="2" opacity="0.5"/><line x1="0" y1="0" x2="9.184850993605149e-15" y2="150" stroke="#f8f0fb" stroke-width="2" opacity="0.5"/><line x1="0" y1="0" x2="-106.06601717798212" y2="106.06601717798213" stroke="#f8f0fb" stroke-width="2" opacity="0.5"/><line x1="0" y1="0" x2="-150" y2="1.8369701987210297e-14" stroke="#f8f0fb" stroke-width="2" opacity="0.5"/><line x1="0" y1="0" x2="-106.06601717798215" y2="-106.06601717798212" stroke="#f8f0fb" stroke-width="2" opacity="0.5"/><line x1="0" y1="0" x2="-2.7554552980815446e-14" y2="-150" stroke="#f8f0fb" stroke-width="2" opacity="0.5"/><line x1="0" y1="0" x2="106.0660171779821" y2="-106.06601717798215" stroke="#f8f0fb" stroke-width="2" opacity="0.5"/>
    </g>

  <!-- Foreground silhouettes -->
  <g opacity="0.7"><path d="M0,675 Q7,638 5,675" stroke="#1a1a40" stroke-width="3" fill="none"/><path d="M15,675 Q7,633 20,675" stroke="#1a1a40" stroke-width="3" fill="none"/><path d="M30,675 Q27,628 35,675" stroke="#1a1a40" stroke-width="3" fill="none"/><path d="M45,675 Q47,623 50,675" stroke="#1a1a40" stroke-width="3" fill="none"/><path d="M60,675 Q67,618 65,675" stroke="#1a1a40" stroke-width="3" fill="none"/><path d="M75,675 Q67,653 80,675" stroke="#1a1a40" stroke-width="3" fill="none"/><path d="M90,675 Q87,648 95,675" stroke="#1a1a40" stroke-width="3" fill="none"/><path d="M105,675 Q107,643 110,675" stroke="#1a1a40" stroke-width="3" fill="none"/><path d="M120,675 Q127,638 125,675" stroke="#1a1a40" stroke-width="3" fill="none"/><path d="M135,675 Q127,633 140,675" stroke="#1a1a40" stroke-width="3" fill="none"/><path d="M150,675 Q147,628 155,675" stroke="#1a1a40" stroke-width="3" fill="none"/><path d="M165,675 Q167,623 170,675" stroke="#1a1a40" stroke-width="3" fill="none"/><path d="M180,675 Q187,618 185,675" stroke="#1a1a40" stroke-width="3" fill="none"/><path d="M195,675 Q187,653 200,675" stroke="#1a1a40" stroke-width="3" fill="none"/><path d="M210,675 Q207,648 215,675" stroke="#1a1a40" stroke-width="3" fill="none"/><path d="M225,675 Q227,643 230,675" stroke="#1a1a40" stroke-width="3" fill="none"/><path d="M240,675 Q247,638 245,675" stroke="#1a1a40" stroke-width="3" fill="none"/><path d="M255,675 Q247,633 260,675" stroke="#1a1a40" stroke-width="3" fill="none"/><path d="M270,675 Q267,628 275,675" stroke="#1a1a40" stroke-width="3" fill="none"/><path d="M285,675 Q287,623 290,675" stroke="#1a1a40" stroke-width="3" fill="none"/><path d="M300,675 Q307,618 305,675" stroke="#1a1a40" stroke-width="3" fill="none"/><path d="M315,675 Q307,653 320,675" stroke="#1a1a40" stroke-width="3" fill="none"/><path d="M330,675 Q327,648 335,675" stroke="#1a1a40" stroke-width="3" fill="none"/><path d="M345,675 Q347,643 350,675" stroke="#1a1a40" stroke-width="3" fill="none"/><path d="M360,675 Q367,638 365,675" stroke="#1a1a40" stroke-width="3" fill="none"/><path d="M375,675 Q367,633 380,675" stroke="#1a1a40" stroke-width="3" fill="none"/><path d="M390,675 Q387,628 395,675" stroke="#1a1a40" stroke-width="3" fill="none"/><path d="M405,675 Q407,623 410,675" stroke="#1a1a40" stroke-width="3" fill="none"/><path d="M420,675 Q427,618 425,675" stroke="#1a1a40" stroke-width="3" fill="none"/><path d="M435,675 Q427,653 440,675" stroke="#1a1a40" stroke-width="3" fill="none"/><path d="M450,675 Q447,648 455,675" stroke="#1a1a40" stroke-width="3" fill="none"/><path d="M465,675 Q467,643 470,675" stroke="#1a1a40" stroke-width="3" fill="none"/><path d="M480,675 Q487,638 485,675" stroke="#1a1a40" stroke-width="3" fill="none"/><path d="M495,675 Q487,633 500,675" stroke="#1a1a40" stroke-width="3" fill="none"/><path d="M510,675 Q507,628 515,675" stroke="#1a1a40" stroke-width="3" fill="none"/><path d="M525,675 Q527,623 530,675" stroke="#1a1a40" stroke-width="3" fill="none"/><path d="M540,675 Q547,618 545,675" stroke="#1a1a40" stroke-width="3" fill="none"/><path d="M555,675 Q547,653 560,675" stroke="#1a1a40" stroke-width="3" fill="none"/><path d="M570,675 Q567,648 575,675" stroke="#1a1a40" stroke-width="3" fill="none"/><path d="M585,675 Q587,643 590,675" stroke="#1a1a40" stroke-width="3" fill="none"/><path d="M600,675 Q607,638 605,675" stroke="#1a1a40" stroke-width="3" fill="none"/><path d="M615,675 Q607,633 620,675" stroke="#1a1a40" stroke-width="3" fill="none"/><path d="M630,675 Q627,628 635,675" stroke="#1a1a40" stroke-width="3" fill="none"/><path d="M645,675 Q647,623 650,675" stroke="#1a1a40" stroke-width="3" fill="none"/><path d="M660,675 Q667,618 665,675" stroke="#1a1a40" stroke-width="3" fill="none"/><path d="M675,675 Q667,653 680,675" stroke="#1a1a40" stroke-width="3" fill="none"/><path d="M690,675 Q687,648 695,675" stroke="#1a1a40" stroke-width="3" fill="none"/><path d="M705,675 Q707,643 710,675" stroke="#1a1a40" stroke-width="3" fill="none"/><path d="M720,675 Q727,638 725,675" stroke="#1a1a40" stroke-width="3" fill="none"/><path d="M735,675 Q727,633 740,675" stroke="#1a1a40" stroke-width="3" fill="none"/><path d="M750,675 Q747,628 755,675" stroke="#1a1a40" stroke-width="3" fill="none"/><path d="M765,675 Q767,623 770,675" stroke="#1a1a40" stroke-width="3" fill="none"/><path d="M780,675 Q787,618 785,675" stroke="#1a1a40" stroke-width="3" fill="none"/><path d="M795,675 Q787,653 800,675" stroke="#1a1a40" stroke-width="3" fill="none"/><path d="M810,675 Q807,648 815,675" stroke="#1a1a40" stroke-width="3" fill="none"/><path d="M825,675 Q827,643 830,675" stroke="#1a1a40" stroke-width="3" fill="none"/><path d="M840,675 Q847,638 845,675" stroke="#1a1a40" stroke-width="3" fill="none"/><path d="M855,675 Q847,633 860,675" stroke="#1a1a40" stroke-width="3" fill="none"/><path d="M870,675 Q867,628 875,675" stroke="#1a1a40" stroke-width="3" fill="none"/><path d="M885,675 Q887,623 890,675" stroke="#1a1a40" stroke-width="3" fill="none"/><path d="M900,675 Q907,618 905,675" stroke="#1a1a40" stroke-width="3" fill="none"/><path d="M915,675 Q907,653 920,675" stroke="#1a1a40" stroke-width="3" fill="none"/><path d="M930,675 Q927,648 935,675" stroke="#1a1a40" stroke-width="3" fill="none"/><path d="M945,675 Q947,643 950,675" stroke="#1a1a40" stroke-width="3" fill="none"/><path d="M960,675 Q967,638 965,675" stroke="#1a1a40" stroke-width="3" fill="none"/><path d="M975,675 Q967,633 980,675" stroke="#1a1a40" stroke-width="3" fill="none"/><path d="M990,675 Q987,628 995,675" stroke="#1a1a40" stroke-width="3" fill="none"/><path d="M1005,675 Q1007,623 1010,675" stroke="#1a1a40" stroke-width="3" fill="none"/><path d="M1020,675 Q1027,618 1025,675" stroke="#1a1a40" stroke-width="3" fill="none"/><path d="M1035,675 Q1027,653 1040,675" stroke="#1a1a40" stroke-width="3" fill="none"/><path d="M1050,675 Q1047,648 1055,675" stroke="#1a1a40" stroke-width="3" fill="none"/><path d="M1065,675 Q1067,643 1070,675" stroke="#1a1a40" stroke-width="3" fill="none"/><path d="M1080,675 Q1087,638 1085,675" stroke="#1a1a40" stroke-width="3" fill="none"/><path d="M1095,675 Q1087,633 1100,675" stroke="#1a1a40" stroke-width="3" fill="none"/><path d="M1110,675 Q1107,628 1115,675" stroke="#1a1a40" stroke-width="3" fill="none"/><path d="M1125,675 Q1127,623 1130,675" stroke="#1a1a40" stroke-width="3" fill="none"/><path d="M1140,675 Q1147,618 1145,675" stroke="#1a1a40" stroke-width="3" fill="none"/><path d="M1155,675 Q1147,653 1160,675" stroke="#1a1a40" stroke-width="3" fill="none"/><path d="M1170,675 Q1167,648 1175,675" stroke="#1a1a40" stroke-width="3" fill="none"/><path d="M1185,675 Q1187,643 1190,675" stroke="#1a1a40" stroke-width="3" fill="none"/></g>

  <!-- Atmospheric overlay -->
  <rect width="1200" height="675" fill="#1a1a40" opacity="0.1"/>

  <!-- Vignette -->
  <rect width="1200" height="675" fill="url(#vignette)" opacity="0.5">
    <defs>
      <radialGradient id="vignette">
        <stop offset="50%" style="stop-color:transparent"/>
        <stop offset="100%" style="stop-color:#1a1a40"/>
      </radialGradient>
    </defs>
  </rect>

  <!-- Session number badge -->
  <g transform="translate(60, 600)">
    <rect x="0" y="0" width="80" height="50" rx="8" fill="#1a1a40" opacity="0.8"/>
    <text x="40" y="35" font-family="Georgia, serif" font-size="28" font-weight="bold" fill="#f8f0fb" text-anchor="middle">1</text>
  </g>
</svg>