<svg xmlns="http://www.w3.org/2000/svg" viewBox="0 0 1200 675" preserveAspectRatio="xMidYMid slice">
  <defs>
    <!-- Gradients -->
    <linearGradient id="sky" x1="0%" y1="0%" x2="0%" y2="100%">
      <stop offset="0%" style="stop-color:#1c1c1c"/>
      <stop offset="50%" style="stop-color:#2d2d44"/>
      <stop offset="100%" style="stop-color:#4a4a6a"/>
    </linearGradient>
    <radialGradient id="glow" cx="50%" cy="60%" r="50%">
      <stop offset="0%" style="stop-color:#d4af37;stop-opacity:0.4"/>
      <stop offset="100%" style="stop-color:#d4af37;stop-opacity:0"/>
    </radialGradient>
    <linearGradient id="ground" x1="0%" y1="0%" x2="0%" y2="100%">
      <stop offset="0%" style="stop-color:#2d2d44"/>
      <stop offset="100%" style="stop-color:#1c1c1c"/>
    </linearGradient>
    <!-- Filters -->
    <filter id="blur">
      <feGaussianBlur in="SourceGraphic" stdDeviation="3"/>
    </filter>
    <filter id="glow-filter">
      <feGaussianBlur stdDeviation="4" result="blur"/>
      <feMerge><feMergeNode in="blur"/><feMergeNode in="SourceGraphic"/></feMerge>
    </filter>
  </defs>

  <!-- Background -->
  <rect width="1200" height="675" fill="url(#sky)"/>

  <!-- Atmospheric glow -->
  <ellipse cx="616" cy="431" rx="500" ry="300" fill="url(#glow)"/>

  <!-- Stars/particles -->
  <circle cx="685" cy="285" r="0.75" fill="#d4af37" opacity="0.6499999999999999"/><circle cx="812" cy="374" r="1.3" fill="#d4af37" opacity="0.32"/><circle cx="939" cy="63" r="0.85" fill="#d4af37" opacity="0.49"/><circle cx="1066" cy="152" r="1.4" fill="#d4af37" opacity="0.6599999999999999"/><circle cx="1193" cy="241" r="0.95" fill="#d4af37" opacity="0.32999999999999996"/><circle cx="120" cy="330" r="0.5" fill="#d4af37" opacity="0.5"/><circle cx="247" cy="19" r="1.05" fill="#d4af37" opacity="0.6699999999999999"/><circle cx="374" cy="108" r="0.6" fill="#d4af37" opacity="0.33999999999999997"/><circle cx="501" cy="197" r="1.15" fill="#d4af37" opacity="0.51"/><circle cx="628" cy="286" r="0.7" fill="#d4af37" opacity="0.6799999999999999"/><circle cx="755" cy="375" r="1.25" fill="#d4af37" opacity="0.35"/><circle cx="882" cy="64" r="0.8" fill="#d4af37" opacity="0.52"/><circle cx="1009" cy="153" r="1.35" fill="#d4af37" opacity="0.69"/><circle cx="1136" cy="242" r="0.9" fill="#d4af37" opacity="0.36"/><circle cx="63" cy="331" r="1.45" fill="#d4af37" opacity="0.53"/><circle cx="190" cy="20" r="1" fill="#d4af37" opacity="0.7"/><circle cx="317" cy="109" r="0.55" fill="#d4af37" opacity="0.37"/><circle cx="444" cy="198" r="1.1" fill="#d4af37" opacity="0.54"/><circle cx="571" cy="287" r="0.65" fill="#d4af37" opacity="0.71"/><circle cx="698" cy="376" r="1.2" fill="#d4af37" opacity="0.38"/><circle cx="825" cy="65" r="0.75" fill="#d4af37" opacity="0.55"/><circle cx="952" cy="154" r="1.3" fill="#d4af37" opacity="0.72"/><circle cx="1079" cy="243" r="0.85" fill="#d4af37" opacity="0.39"/><circle cx="6" cy="332" r="1.4" fill="#d4af37" opacity="0.56"/><circle cx="133" cy="21" r="0.95" fill="#d4af37" opacity="0.73"/><circle cx="260" cy="110" r="0.5" fill="#d4af37" opacity="0.4"/><circle cx="387" cy="199" r="1.05" fill="#d4af37" opacity="0.5700000000000001"/><circle cx="514" cy="288" r="0.6" fill="#d4af37" opacity="0.74"/><circle cx="641" cy="377" r="1.15" fill="#d4af37" opacity="0.41"/><circle cx="768" cy="66" r="0.7" fill="#d4af37" opacity="0.5800000000000001"/><circle cx="895" cy="155" r="1.25" fill="#d4af37" opacity="0.75"/><circle cx="1022" cy="244" r="0.8" fill="#d4af37" opacity="0.42"/><circle cx="1149" cy="333" r="1.35" fill="#d4af37" opacity="0.59"/><circle cx="76" cy="22" r="0.9" fill="#d4af37" opacity="0.76"/><circle cx="203" cy="111" r="1.45" fill="#d4af37" opacity="0.43"/><circle cx="330" cy="200" r="1" fill="#d4af37" opacity="0.6"/><circle cx="457" cy="289" r="0.55" fill="#d4af37" opacity="0.77"/><circle cx="584" cy="378" r="1.1" fill="#d4af37" opacity="0.44"/><circle cx="711" cy="67" r="0.65" fill="#d4af37" opacity="0.61"/><circle cx="838" cy="156" r="1.2" fill="#d4af37" opacity="0.78"/><circle cx="965" cy="245" r="0.75" fill="#d4af37" opacity="0.44999999999999996"/><circle cx="1092" cy="334" r="1.3" fill="#d4af37" opacity="0.62"/><circle cx="19" cy="23" r="0.85" fill="#d4af37" opacity="0.79"/><circle cx="146" cy="112" r="1.4" fill="#d4af37" opacity="0.45999999999999996"/><circle cx="273" cy="201" r="0.95" fill="#d4af37" opacity="0.63"/><circle cx="400" cy="290" r="0.5" fill="#d4af37" opacity="0.3"/><circle cx="527" cy="379" r="1.05" fill="#d4af37" opacity="0.47"/><circle cx="654" cy="68" r="0.6" fill="#d4af37" opacity="0.64"/><circle cx="781" cy="157" r="1.15" fill="#d4af37" opacity="0.31"/><circle cx="908" cy="246" r="0.7" fill="#d4af37" opacity="0.48"/>

  <!-- Distant mountains/shapes -->
  <polygon points="0,500 0,435 100,385 200,485 300,435 400,385 500,485 600,435 700,385 800,485 900,435 1000,385 1100,485 1200,435 1200,500" fill="#2d2d44" opacity="0.5"/>
  <polygon points="0,550 0,485 80,475 160,465 240,455 320,445 400,435 480,425 560,415 640,405 720,545 800,535 880,525 960,515 1040,505 1120,495 1200,485 1200,550" fill="#4a4a6a" opacity="0.6"/>

  <!-- Main focal element based on theme -->
  
    <g transform="translate(600, 380)">
      <rect x="-200" y="-250" width="400" height="300" fill="#2d2d44" opacity="0.3"/>
      <rect x="-165" y="-250" width="30" height="280" fill="#4a4a6a"/><rect x="-65" y="-250" width="30" height="280" fill="#4a4a6a"/><rect x="35" y="-250" width="30" height="280" fill="#4a4a6a"/><rect x="135" y="-250" width="30" height="280" fill="#4a4a6a"/>
      <polygon points="-220,-250 0,-350 220,-250" fill="#4a4a6a"/>
      <circle cx="0" cy="-150" r="40" fill="#d4af37" opacity="0.6" filter="url(#blur)"/>
    </g>

  <!-- Foreground silhouettes -->
  <g opacity="0.7"><path d="M0,675 Q-5,650 5,675" stroke="#1c1c1c" stroke-width="3" fill="none"/><path d="M15,675 Q15,645 20,675" stroke="#1c1c1c" stroke-width="3" fill="none"/><path d="M30,675 Q35,640 35,675" stroke="#1c1c1c" stroke-width="3" fill="none"/><path d="M45,675 Q35,635 50,675" stroke="#1c1c1c" stroke-width="3" fill="none"/><path d="M60,675 Q55,630 65,675" stroke="#1c1c1c" stroke-width="3" fill="none"/><path d="M75,675 Q75,625 80,675" stroke="#1c1c1c" stroke-width="3" fill="none"/><path d="M90,675 Q95,620 95,675" stroke="#1c1c1c" stroke-width="3" fill="none"/><path d="M105,675 Q95,655 110,675" stroke="#1c1c1c" stroke-width="3" fill="none"/><path d="M120,675 Q115,650 125,675" stroke="#1c1c1c" stroke-width="3" fill="none"/><path d="M135,675 Q135,645 140,675" stroke="#1c1c1c" stroke-width="3" fill="none"/><path d="M150,675 Q155,640 155,675" stroke="#1c1c1c" stroke-width="3" fill="none"/><path d="M165,675 Q155,635 170,675" stroke="#1c1c1c" stroke-width="3" fill="none"/><path d="M180,675 Q175,630 185,675" stroke="#1c1c1c" stroke-width="3" fill="none"/><path d="M195,675 Q195,625 200,675" stroke="#1c1c1c" stroke-width="3" fill="none"/><path d="M210,675 Q215,620 215,675" stroke="#1c1c1c" stroke-width="3" fill="none"/><path d="M225,675 Q215,655 230,675" stroke="#1c1c1c" stroke-width="3" fill="none"/><path d="M240,675 Q235,650 245,675" stroke="#1c1c1c" stroke-width="3" fill="none"/><path d="M255,675 Q255,645 260,675" stroke="#1c1c1c" stroke-width="3" fill="none"/><path d="M270,675 Q275,640 275,675" stroke="#1c1c1c" stroke-width="3" fill="none"/><path d="M285,675 Q275,635 290,675" stroke="#1c1c1c" stroke-width="3" fill="none"/><path d="M300,675 Q295,630 305,675" stroke="#1c1c1c" stroke-width="3" fill="none"/><path d="M315,675 Q315,625 320,675" stroke="#1c1c1c" stroke-width="3" fill="none"/><path d="M330,675 Q335,620 335,675" stroke="#1c1c1c" stroke-width="3" fill="none"/><path d="M345,675 Q335,655 350,675" stroke="#1c1c1c" stroke-width="3" fill="none"/><path d="M360,675 Q355,650 365,675" stroke="#1c1c1c" stroke-width="3" fill="none"/><path d="M375,675 Q375,645 380,675" stroke="#1c1c1c" stroke-width="3" fill="none"/><path d="M390,675 Q395,640 395,675" stroke="#1c1c1c" stroke-width="3" fill="none"/><path d="M405,675 Q395,635 410,675" stroke="#1c1c1c" stroke-width="3" fill="none"/><path d="M420,675 Q415,630 425,675" stroke="#1c1c1c" stroke-width="3" fill="none"/><path d="M435,675 Q435,625 440,675" stroke="#1c1c1c" stroke-width="3" fill="none"/><path d="M450,675 Q455,620 455,675" stroke="#1c1c1c" stroke-width="3" fill="none"/><path d="M465,675 Q455,655 470,675" stroke="#1c1c1c" stroke-width="3" fill="none"/><path d="M480,675 Q475,650 485,675" stroke="#1c1c1c" stroke-width="3" fill="none"/><path d="M495,675 Q495,645 500,675" stroke="#1c1c1c" stroke-width="3" fill="none"/><path d="M510,675 Q515,640 515,675" stroke="#1c1c1c" stroke-width="3" fill="none"/><path d="M525,675 Q515,635 530,675" stroke="#1c1c1c" stroke-width="3" fill="none"/><path d="M540,675 Q535,630 545,675" stroke="#1c1c1c" stroke-width="3" fill="none"/><path d="M555,675 Q555,625 560,675" stroke="#1c1c1c" stroke-width="3" fill="none"/><path d="M570,675 Q575,620 575,675" stroke="#1c1c1c" stroke-width="3" fill="none"/><path d="M585,675 Q575,655 590,675" stroke="#1c1c1c" stroke-width="3" fill="none"/><path d="M600,675 Q595,650 605,675" stroke="#1c1c1c" stroke-width="3" fill="none"/><path d="M615,675 Q615,645 620,675" stroke="#1c1c1c" stroke-width="3" fill="none"/><path d="M630,675 Q635,640 635,675" stroke="#1c1c1c" stroke-width="3" fill="none"/><path d="M645,675 Q635,635 650,675" stroke="#1c1c1c" stroke-width="3" fill="none"/><path d="M660,675 Q655,630 665,675" stroke="#1c1c1c" stroke-width="3" fill="none"/><path d="M675,675 Q675,625 680,675" stroke="#1c1c1c" stroke-width="3" fill="none"/><path d="M690,675 Q695,620 695,675" stroke="#1c1c1c" stroke-width="3" fill="none"/><path d="M705,675 Q695,655 710,675" stroke="#1c1c1c" stroke-width="3" fill="none"/><path d="M720,675 Q715,650 725,675" stroke="#1c1c1c" stroke-width="3" fill="none"/><path d="M735,675 Q735,645 740,675" stroke="#1c1c1c" stroke-width="3" fill="none"/><path d="M750,675 Q755,640 755,675" stroke="#1c1c1c" stroke-width="3" fill="none"/><path d="M765,675 Q755,635 770,675" stroke="#1c1c1c" stroke-width="3" fill="none"/><path d="M780,675 Q775,630 785,675" stroke="#1c1c1c" stroke-width="3" fill="none"/><path d="M795,675 Q795,625 800,675" stroke="#1c1c1c" stroke-width="3" fill="none"/><path d="M810,675 Q815,620 815,675" stroke="#1c1c1c" stroke-width="3" fill="none"/><path d="M825,675 Q815,655 830,675" stroke="#1c1c1c" stroke-width="3" fill="none"/><path d="M840,675 Q835,650 845,675" stroke="#1c1c1c" stroke-width="3" fill="none"/><path d="M855,675 Q855,645 860,675" stroke="#1c1c1c" stroke-width="3" fill="none"/><path d="M870,675 Q875,640 875,675" stroke="#1c1c1c" stroke-width="3" fill="none"/><path d="M885,675 Q875,635 890,675" stroke="#1c1c1c" stroke-width="3" fill="none"/><path d="M900,675 Q895,630 905,675" stroke="#1c1c1c" stroke-width="3" fill="none"/><path d="M915,675 Q915,625 920,675" stroke="#1c1c1c" stroke-width="3" fill="none"/><path d="M930,675 Q935,620 935,675" stroke="#1c1c1c" stroke-width="3" fill="none"/><path d="M945,675 Q935,655 950,675" stroke="#1c1c1c" stroke-width="3" fill="none"/><path d="M960,675 Q955,650 965,675" stroke="#1c1c1c" stroke-width="3" fill="none"/><path d="M975,675 Q975,645 980,675" stroke="#1c1c1c" stroke-width="3" fill="none"/><path d="M990,675 Q995,640 995,675" stroke="#1c1c1c" stroke-width="3" fill="none"/><path d="M1005,675 Q995,635 1010,675" stroke="#1c1c1c" stroke-width="3" fill="none"/><path d="M1020,675 Q1015,630 1025,675" stroke="#1c1c1c" stroke-width="3" fill="none"/><path d="M1035,675 Q1035,625 1040,675" stroke="#1c1c1c" stroke-width="3" fill="none"/><path d="M1050,675 Q1055,620 1055,675" stroke="#1c1c1c" stroke-width="3" fill="none"/><path d="M1065,675 Q1055,655 1070,675" stroke="#1c1c1c" stroke-width="3" fill="none"/><path d="M1080,675 Q1075,650 1085,675" stroke="#1c1c1c" stroke-width="3" fill="none"/><path d="M1095,675 Q1095,645 1100,675" stroke="#1c1c1c" stroke-width="3" fill="none"/><path d="M1110,675 Q1115,640 1115,675" stroke="#1c1c1c" stroke-width="3" fill="none"/><path d="M1125,675 Q1115,635 1130,675" stroke="#1c1c1c" stroke-width="3" fill="none"/><path d="M1140,675 Q1135,630 1145,675" stroke="#1c1c1c" stroke-width="3" fill="none"/><path d="M1155,675 Q1155,625 1160,675" stroke="#1c1c1c" stroke-width="3" fill="none"/><path d="M1170,675 Q1175,620 1175,675" stroke="#1c1c1c" stroke-width="3" fill="none"/><path d="M1185,675 Q1175,655 1190,675" stroke="#1c1c1c" stroke-width="3" fill="none"/></g>

  <!-- Atmospheric overlay -->
  <rect width="1200" height="675" fill="#1c1c1c" opacity="0.1"/>

  <!-- Vignette -->
  <rect width="1200" height="675" fill="url(#vignette)" opacity="0.5">
    <defs>
      <radialGradient id="vignette">
        <stop offset="50%" style="stop-color:transparent"/>
        <stop offset="100%" style="stop-color:#1c1c1c"/>
      </radialGradient>
    </defs>
  </rect>

  <!-- Session number badge -->
  <g transform="translate(60, 600)">
    <rect x="0" y="0" width="80" height="50" rx="8" fill="#1c1c1c" opacity="0.8"/>
    <text x="40" y="35" font-family="Georgia, serif" font-size="28" font-weight="bold" fill="#d4af37" text-anchor="middle">5</text>
  </g>
</svg>