<svg xmlns="http://www.w3.org/2000/svg" viewBox="0 0 1200 675" preserveAspectRatio="xMidYMid slice">
  <defs>
    <!-- Gradients -->
    <linearGradient id="sky" x1="0%" y1="0%" x2="0%" y2="100%">
      <stop offset="0%" style="stop-color:#1a1a2e"/>
      <stop offset="50%" style="stop-color:#16213e"/>
      <stop offset="100%" style="stop-color:#0f3460"/>
    </linearGradient>
    <radialGradient id="glow" cx="50%" cy="60%" r="50%">
      <stop offset="0%" style="stop-color:#ffd369;stop-opacity:0.4"/>
      <stop offset="100%" style="stop-color:#ffd369;stop-opacity:0"/>
    </radialGradient>
    <linearGradient id="ground" x1="0%" y1="0%" x2="0%" y2="100%">
      <stop offset="0%" style="stop-color:#16213e"/>
      <stop offset="100%" style="stop-color:#1a1a2e"/>
    </linearGradient>
    <!-- Filters -->
    <filter id="blur">
      <feGaussianBlur in="SourceGraphic" stdDeviation="3"/>
    </filter>
    <filter id="glow-filter">
      <feGaussianBlur stdDeviation="4" result="blur"/>
      <feMerge><feMergeNode in="blur"/><feMergeNode in="SourceGraphic"/></feMerge>
    </filter>
  </defs>

  <!-- Background -->
  <rect width="1200" height="675" fill="url(#sky)"/>

  <!-- Atmospheric glow -->
  <ellipse cx="512" cy="479" rx="500" ry="300" fill="url(#glow)"/>

  <!-- Stars/particles -->
  <circle cx="33" cy="33" r="1.15" fill="#ffd369" opacity="0.63"/><circle cx="160" cy="122" r="0.7" fill="#ffd369" opacity="0.3"/><circle cx="287" cy="211" r="1.25" fill="#ffd369" opacity="0.47"/><circle cx="414" cy="300" r="0.8" fill="#ffd369" opacity="0.64"/><circle cx="541" cy="389" r="1.35" fill="#ffd369" opacity="0.31"/><circle cx="668" cy="78" r="0.9" fill="#ffd369" opacity="0.48"/><circle cx="795" cy="167" r="1.45" fill="#ffd369" opacity="0.6499999999999999"/><circle cx="922" cy="256" r="1" fill="#ffd369" opacity="0.32"/><circle cx="1049" cy="345" r="0.55" fill="#ffd369" opacity="0.49"/><circle cx="1176" cy="34" r="1.1" fill="#ffd369" opacity="0.6599999999999999"/><circle cx="103" cy="123" r="0.65" fill="#ffd369" opacity="0.32999999999999996"/><circle cx="230" cy="212" r="1.2" fill="#ffd369" opacity="0.5"/><circle cx="357" cy="301" r="0.75" fill="#ffd369" opacity="0.6699999999999999"/><circle cx="484" cy="390" r="1.3" fill="#ffd369" opacity="0.33999999999999997"/><circle cx="611" cy="79" r="0.85" fill="#ffd369" opacity="0.51"/><circle cx="738" cy="168" r="1.4" fill="#ffd369" opacity="0.6799999999999999"/><circle cx="865" cy="257" r="0.95" fill="#ffd369" opacity="0.35"/><circle cx="992" cy="346" r="0.5" fill="#ffd369" opacity="0.52"/><circle cx="1119" cy="35" r="1.05" fill="#ffd369" opacity="0.69"/><circle cx="46" cy="124" r="0.6" fill="#ffd369" opacity="0.36"/><circle cx="173" cy="213" r="1.15" fill="#ffd369" opacity="0.53"/><circle cx="300" cy="302" r="0.7" fill="#ffd369" opacity="0.7"/><circle cx="427" cy="391" r="1.25" fill="#ffd369" opacity="0.37"/><circle cx="554" cy="80" r="0.8" fill="#ffd369" opacity="0.54"/><circle cx="681" cy="169" r="1.35" fill="#ffd369" opacity="0.71"/><circle cx="808" cy="258" r="0.9" fill="#ffd369" opacity="0.38"/><circle cx="935" cy="347" r="1.45" fill="#ffd369" opacity="0.55"/><circle cx="1062" cy="36" r="1" fill="#ffd369" opacity="0.72"/><circle cx="1189" cy="125" r="0.55" fill="#ffd369" opacity="0.39"/><circle cx="116" cy="214" r="1.1" fill="#ffd369" opacity="0.56"/><circle cx="243" cy="303" r="0.65" fill="#ffd369" opacity="0.73"/><circle cx="370" cy="392" r="1.2" fill="#ffd369" opacity="0.4"/><circle cx="497" cy="81" r="0.75" fill="#ffd369" opacity="0.5700000000000001"/><circle cx="624" cy="170" r="1.3" fill="#ffd369" opacity="0.74"/><circle cx="751" cy="259" r="0.85" fill="#ffd369" opacity="0.41"/><circle cx="878" cy="348" r="1.4" fill="#ffd369" opacity="0.5800000000000001"/><circle cx="1005" cy="37" r="0.95" fill="#ffd369" opacity="0.75"/><circle cx="1132" cy="126" r="0.5" fill="#ffd369" opacity="0.42"/><circle cx="59" cy="215" r="1.05" fill="#ffd369" opacity="0.59"/><circle cx="186" cy="304" r="0.6" fill="#ffd369" opacity="0.76"/><circle cx="313" cy="393" r="1.15" fill="#ffd369" opacity="0.43"/><circle cx="440" cy="82" r="0.7" fill="#ffd369" opacity="0.6"/><circle cx="567" cy="171" r="1.25" fill="#ffd369" opacity="0.77"/><circle cx="694" cy="260" r="0.8" fill="#ffd369" opacity="0.44"/><circle cx="821" cy="349" r="1.35" fill="#ffd369" opacity="0.61"/><circle cx="948" cy="38" r="0.9" fill="#ffd369" opacity="0.78"/><circle cx="1075" cy="127" r="1.45" fill="#ffd369" opacity="0.44999999999999996"/><circle cx="2" cy="216" r="1" fill="#ffd369" opacity="0.62"/><circle cx="129" cy="305" r="0.55" fill="#ffd369" opacity="0.79"/><circle cx="256" cy="394" r="1.1" fill="#ffd369" opacity="0.45999999999999996"/>

  <!-- Distant mountains/shapes -->
  <polygon points="0,500 0,383 100,483 200,433 300,383 400,483 500,433 600,383 700,483 800,433 900,383 1000,483 1100,433 1200,383 1200,500" fill="#16213e" opacity="0.5"/>
  <polygon points="0,550 0,433 80,423 160,413 240,403 320,543 400,533 480,523 560,513 640,503 720,493 800,483 880,473 960,463 1040,453 1120,443 1200,433 1200,550" fill="#0f3460" opacity="0.6"/>

  <!-- Main focal element based on theme -->
  
    <g transform="translate(600, 380)">
      <polygon points="-100,50 -80,-100 0,-150 80,-100 100,50" fill="#0f3460" opacity="0.9"/>
      <polygon points="-60,30 -50,-60 0,-90 50,-60 60,30" fill="#e94560"/>
      <ellipse cx="0" cy="-50" rx="20" ry="30" fill="#ffd369" opacity="0.8" filter="url(#blur)"/>
    </g>

  <!-- Foreground silhouettes -->
  <g opacity="0.7"><path d="M0,675 Q3,622 5,675" stroke="#1a1a2e" stroke-width="3" fill="none"/><path d="M15,675 Q23,617 20,675" stroke="#1a1a2e" stroke-width="3" fill="none"/><path d="M30,675 Q23,652 35,675" stroke="#1a1a2e" stroke-width="3" fill="none"/><path d="M45,675 Q43,647 50,675" stroke="#1a1a2e" stroke-width="3" fill="none"/><path d="M60,675 Q63,642 65,675" stroke="#1a1a2e" stroke-width="3" fill="none"/><path d="M75,675 Q83,637 80,675" stroke="#1a1a2e" stroke-width="3" fill="none"/><path d="M90,675 Q83,632 95,675" stroke="#1a1a2e" stroke-width="3" fill="none"/><path d="M105,675 Q103,627 110,675" stroke="#1a1a2e" stroke-width="3" fill="none"/><path d="M120,675 Q123,622 125,675" stroke="#1a1a2e" stroke-width="3" fill="none"/><path d="M135,675 Q143,617 140,675" stroke="#1a1a2e" stroke-width="3" fill="none"/><path d="M150,675 Q143,652 155,675" stroke="#1a1a2e" stroke-width="3" fill="none"/><path d="M165,675 Q163,647 170,675" stroke="#1a1a2e" stroke-width="3" fill="none"/><path d="M180,675 Q183,642 185,675" stroke="#1a1a2e" stroke-width="3" fill="none"/><path d="M195,675 Q203,637 200,675" stroke="#1a1a2e" stroke-width="3" fill="none"/><path d="M210,675 Q203,632 215,675" stroke="#1a1a2e" stroke-width="3" fill="none"/><path d="M225,675 Q223,627 230,675" stroke="#1a1a2e" stroke-width="3" fill="none"/><path d="M240,675 Q243,622 245,675" stroke="#1a1a2e" stroke-width="3" fill="none"/><path d="M255,675 Q263,617 260,675" stroke="#1a1a2e" stroke-width="3" fill="none"/><path d="M270,675 Q263,652 275,675" stroke="#1a1a2e" stroke-width="3" fill="none"/><path d="M285,675 Q283,647 290,675" stroke="#1a1a2e" stroke-width="3" fill="none"/><path d="M300,675 Q303,642 305,675" stroke="#1a1a2e" stroke-width="3" fill="none"/><path d="M315,675 Q323,637 320,675" stroke="#1a1a2e" stroke-width="3" fill="none"/><path d="M330,675 Q323,632 335,675" stroke="#1a1a2e" stroke-width="3" fill="none"/><path d="M345,675 Q343,627 350,675" stroke="#1a1a2e" stroke-width="3" fill="none"/><path d="M360,675 Q363,622 365,675" stroke="#1a1a2e" stroke-width="3" fill="none"/><path d="M375,675 Q383,617 380,675" stroke="#1a1a2e" stroke-width="3" fill="none"/><path d="M390,675 Q383,652 395,675" stroke="#1a1a2e" stroke-width="3" fill="none"/><path d="M405,675 Q403,647 410,675" stroke="#1a1a2e" stroke-width="3" fill="none"/><path d="M420,675 Q423,642 425,675" stroke="#1a1a2e" stroke-width="3" fill="none"/><path d="M435,675 Q443,637 440,675" stroke="#1a1a2e" stroke-width="3" fill="none"/><path d="M450,675 Q443,632 455,675" stroke="#1a1a2e" stroke-width="3" fill="none"/><path d="M465,675 Q463,627 470,675" stroke="#1a1a2e" stroke-width="3" fill="none"/><path d="M480,675 Q483,622 485,675" stroke="#1a1a2e" stroke-width="3" fill="none"/><path d="M495,675 Q503,617 500,675" stroke="#1a1a2e" stroke-width="3" fill="none"/><path d="M510,675 Q503,652 515,675" stroke="#1a1a2e" stroke-width="3" fill="none"/><path d="M525,675 Q523,647 530,675" stroke="#1a1a2e" stroke-width="3" fill="none"/><path d="M540,675 Q543,642 545,675" stroke="#1a1a2e" stroke-width="3" fill="none"/><path d="M555,675 Q563,637 560,675" stroke="#1a1a2e" stroke-width="3" fill="none"/><path d="M570,675 Q563,632 575,675" stroke="#1a1a2e" stroke-width="3" fill="none"/><path d="M585,675 Q583,627 590,675" stroke="#1a1a2e" stroke-width="3" fill="none"/><path d="M600,675 Q603,622 605,675" stroke="#1a1a2e" stroke-width="3" fill="none"/><path d="M615,675 Q623,617 620,675" stroke="#1a1a2e" stroke-width="3" fill="none"/><path d="M630,675 Q623,652 635,675" stroke="#1a1a2e" stroke-width="3" fill="none"/><path d="M645,675 Q643,647 650,675" stroke="#1a1a2e" stroke-width="3" fill="none"/><path d="M660,675 Q663,642 665,675" stroke="#1a1a2e" stroke-width="3" fill="none"/><path d="M675,675 Q683,637 680,675" stroke="#1a1a2e" stroke-width="3" fill="none"/><path d="M690,675 Q683,632 695,675" stroke="#1a1a2e" stroke-width="3" fill="none"/><path d="M705,675 Q703,627 710,675" stroke="#1a1a2e" stroke-width="3" fill="none"/><path d="M720,675 Q723,622 725,675" stroke="#1a1a2e" stroke-width="3" fill="none"/><path d="M735,675 Q743,617 740,675" stroke="#1a1a2e" stroke-width="3" fill="none"/><path d="M750,675 Q743,652 755,675" stroke="#1a1a2e" stroke-width="3" fill="none"/><path d="M765,675 Q763,647 770,675" stroke="#1a1a2e" stroke-width="3" fill="none"/><path d="M780,675 Q783,642 785,675" stroke="#1a1a2e" stroke-width="3" fill="none"/><path d="M795,675 Q803,637 800,675" stroke="#1a1a2e" stroke-width="3" fill="none"/><path d="M810,675 Q803,632 815,675" stroke="#1a1a2e" stroke-width="3" fill="none"/><path d="M825,675 Q823,627 830,675" stroke="#1a1a2e" stroke-width="3" fill="none"/><path d="M840,675 Q843,622 845,675" stroke="#1a1a2e" stroke-width="3" fill="none"/><path d="M855,675 Q863,617 860,675" stroke="#1a1a2e" stroke-width="3" fill="none"/><path d="M870,675 Q863,652 875,675" stroke="#1a1a2e" stroke-width="3" fill="none"/><path d="M885,675 Q883,647 890,675" stroke="#1a1a2e" stroke-width="3" fill="none"/><path d="M900,675 Q903,642 905,675" stroke="#1a1a2e" stroke-width="3" fill="none"/><path d="M915,675 Q923,637 920,675" stroke="#1a1a2e" stroke-width="3" fill="none"/><path d="M930,675 Q923,632 935,675" stroke="#1a1a2e" stroke-width="3" fill="none"/><path d="M945,675 Q943,627 950,675" stroke="#1a1a2e" stroke-width="3" fill="none"/><path d="M960,675 Q963,622 965,675" stroke="#1a1a2e" stroke-width="3" fill="none"/><path d="M975,675 Q983,617 980,675" stroke="#1a1a2e" stroke-width="3" fill="none"/><path d="M990,675 Q983,652 995,675" stroke="#1a1a2e" stroke-width="3" fill="none"/><path d="M1005,675 Q1003,647 1010,675" stroke="#1a1a2e" stroke-width="3" fill="none"/><path d="M1020,675 Q1023,642 1025,675" stroke="#1a1a2e" stroke-width="3" fill="none"/><path d="M1035,675 Q1043,637 1040,675" stroke="#1a1a2e" stroke-width="3" fill="none"/><path d="M1050,675 Q1043,632 1055,675" stroke="#1a1a2e" stroke-width="3" fill="none"/><path d="M1065,675 Q1063,627 1070,675" stroke="#1a1a2e" stroke-width="3" fill="none"/><path d="M1080,675 Q1083,622 1085,675" stroke="#1a1a2e" stroke-width="3" fill="none"/><path d="M1095,675 Q1103,617 1100,675" stroke="#1a1a2e" stroke-width="3" fill="none"/><path d="M1110,675 Q1103,652 1115,675" stroke="#1a1a2e" stroke-width="3" fill="none"/><path d="M1125,675 Q1123,647 1130,675" stroke="#1a1a2e" stroke-width="3" fill="none"/><path d="M1140,675 Q1143,642 1145,675" stroke="#1a1a2e" stroke-width="3" fill="none"/><path d="M1155,675 Q1163,637 1160,675" stroke="#1a1a2e" stroke-width="3" fill="none"/><path d="M1170,675 Q1163,632 1175,675" stroke="#1a1a2e" stroke-width="3" fill="none"/><path d="M1185,675 Q1183,627 1190,675" stroke="#1a1a2e" stroke-width="3" fill="none"/></g>

  <!-- Atmospheric overlay -->
  <rect width="1200" height="675" fill="#1a1a2e" opacity="0.1"/>

  <!-- Vignette -->
  <rect width="1200" height="675" fill="url(#vignette)" opacity="0.5">
    <defs>
      <radialGradient id="vignette">
        <stop offset="50%" style="stop-color:transparent"/>
        <stop offset="100%" style="stop-color:#1a1a2e"/>
      </radialGradient>
    </defs>
  </rect>

  <!-- Session number badge -->
  <g transform="translate(60, 600)">
    <rect x="0" y="0" width="80" height="50" rx="8" fill="#1a1a2e" opacity="0.8"/>
    <text x="40" y="35" font-family="Georgia, serif" font-size="28" font-weight="bold" fill="#ffd369" text-anchor="middle">9</text>
  </g>
</svg>